<?xml version="1.0" encoding="UTF-8" standalone="no"?>
<!-- Created with Inkscape (http://www.inkscape.org/) -->

<svg
   width="1023.9999"
   height="1023.9999"
   viewBox="0 0 270.93333 270.93333"
   version="1.1"
   id="svg1"
   xml:space="preserve"
   xmlns="http://www.w3.org/2000/svg"
   xmlns:svg="http://www.w3.org/2000/svg"><defs
     id="defs1" /><g
     id="layer1"><path
       style="fill:#e7793d;stroke:none"
       d="M 0,0 V 270.93332 H 270.93332 V 0 H 0 m 152.92916,68.321294 c 2.56063,-0.355646 5.352,-0.0588 7.9375,-0.0588 5.65503,0 11.30551,0.108263 16.93333,0.264584 2.28902,0.06358 4.58914,0 6.87917,0 1.12289,0 2.40302,-0.180206 3.43958,0.338077 2.26742,1.1337 4.00756,3.502483 5.82083,5.210825 3.67765,3.464824 7.26992,7.012685 10.84792,10.59068 l 7.67292,7.672916 c 1.14754,1.150189 2.95429,2.685899 3.51307,4.233334 0.60476,1.674736 0.19109,4.05636 0.19109,5.82083 0,3.42005 0.26459,6.87221 0.26459,10.31875 v 35.45417 c 0,13.75447 -0.23282,27.55268 -0.26459,41.275 -0.007,3.19909 0.52885,6.91734 -0.1029,10.05416 -0.32378,1.60769 -1.44466,2.77357 -3.0721,3.10886 -2.05349,0.42307 -4.51839,0.0661 -6.61458,0.0661 -4.93235,0 -9.88648,-0.13694 -14.81667,0 -15.16078,0.42115 -30.32003,0 -45.50833,0 h -15.61041 c -2.16262,0 -4.70154,0.4273 -6.32795,-1.33026 -1.79845,-1.94347 -1.08039,-5.75753 -1.08039,-8.19474 V 171.71457 97.631245 78.316663 c 0,-2.23092 -0.69865,-6.001927 0.61736,-7.9375 1.74908,-2.57255 5.44271,-1.852083 8.11389,-1.852083 h 12.96459 c 2.72585,0 5.50496,0.16882 8.20208,-0.205786 M 92.074995,128.58749 v 32.01458 c 3.53596,0 7.074592,-0.10671 10.583335,0.24253 1.3514,0.13452 2.96937,-0.30237 4.23333,0.31603 0.9922,0.48545 1.23098,1.34989 1.42581,2.35186 0.40864,2.10158 0.24814,4.51051 -0.0441,6.61458 -0.14272,1.02757 -2.6e-4,1.85157 -0.8599,2.61645 -1.61823,1.4398 -5.38292,0.82314 -7.40099,0.82314 -1.180083,0 -2.588056,-0.14877 -2.881013,1.32291 -0.180988,0.9092 -0.0294,1.9848 -0.0294,2.91042 0,0.97752 -0.296178,2.55244 0.19109,3.43224 0.583661,1.05382 1.97412,0.80109 2.983913,0.80109 1.70595,0 3.33939,0.15566 5.02708,0.25724 0.94424,0.0568 1.87681,-0.0351 2.51354,0.82316 0.5603,0.75518 0.33494,1.75444 0.45568,2.62377 0.31259,2.25067 1.11577,7.59923 -1.6463,8.59896 -0.90034,0.32588 -1.97424,0.0611 -2.91042,0.15435 -2.38548,0.23744 -4.737081,0.24252 -7.143749,0.24252 -1.048741,0 -3.023007,-0.37767 -3.939351,0.19109 -1.001409,0.62156 -0.908569,3.00776 -1.425809,4.04225 -1.789184,3.57836 -6.170941,4.97256 -9.71609,3.1015 -3.421044,-1.80556 -3.439583,-5.03212 -3.439583,-8.39317 v -10.31875 c 0,-18.23865 -0.264583,-36.50425 -0.264583,-54.76875 -3.257949,-0.35592 -6.590949,-2.35932 -9.260416,-4.14514 -2.429729,-1.62545 -4.484562,-3.62434 -6.298554,-5.90902 -11.061557,-13.93174 -6.050696,-35.254923 9.738137,-43.185882 2.868349,-1.440804 6.271241,-2.761249 9.524999,-2.851618 3.129743,-0.08693 6.445351,-0.231349 9.525,0.367484 8.544819,1.661526 16.394409,7.892896 20.042189,15.772098 5.92984,12.808488 1.39544,29.178648 -10.78177,36.563948 -2.386671,1.44747 -5.387973,3.08071 -8.202086,3.38813 M 186.53124,75.406246 c 0,4.429171 0.26458,8.79901 0.26458,13.229166 0,2.67172 -0.29915,5.245626 1.6904,7.349535 2.00678,2.122092 4.85967,2.175465 7.57002,2.175465 h 13.75833 l -5.55625,-5.820834 -10.58333,-10.583332 -4.49792,-4.240681 -2.64583,-2.109319 m -38.36458,22.224999 h -7.14375 v 3.439585 h 2.91042 c 0,1.01018 0.35283,2.82667 -0.35279,3.63802 -2.11699,2.43417 -5.55443,-0.57199 -5.93842,-2.84427 -0.40848,-2.417296 -0.59368,-6.782792 0.54387,-8.995835 1.56607,-3.046729 5.04258,-1.833593 5.74734,1.058333 h 4.49791 c -0.32212,-1.703626 -0.67662,-3.428036 -1.87412,-4.762499 -2.78265,-3.100877 -8.54086,-3.038736 -11.33299,0 -2.76778,3.012219 -2.76437,8.321859 -2.38125,12.170831 0.28616,2.87494 1.49057,5.97449 4.21128,7.33484 1.83685,0.91844 4.64401,0.82414 6.61458,0.44098 1.26501,-0.24597 3.27886,-0.72124 4.14513,-1.75655 0.59255,-0.70816 0.35279,-1.98332 0.35279,-2.84427 v -6.879165 m 33.3375,0 h -7.14375 v 3.439585 h 3.175 c 0,1.08557 0.28509,2.72228 -0.43363,3.63802 -1.18919,1.51518 -4.11246,0.41708 -5.09323,-0.72761 -0.60567,-0.70688 -0.75572,-1.49475 -0.92604,-2.38125 -0.44836,-2.333654 -0.58141,-5.940685 0.23519,-8.202078 0.40006,-1.107846 1.32229,-2.100017 2.51354,-2.315104 1.08708,-0.196274 2.16392,0.374799 2.77813,1.25677 0.29092,0.417756 0.3725,1.081572 0.79375,1.396411 0.86905,0.649524 3.30457,0.191089 4.36562,0.191089 -0.46775,-1.739509 -0.59236,-3.360566 -1.87413,-4.762499 -2.7985,-3.060892 -8.9063,-3.09122 -11.50937,0.264583 -2.51852,3.246782 -2.32932,8.527128 -1.94029,12.435418 0.57277,5.75425 5.17092,8.28229 10.56129,7.24665 1.30632,-0.25099 3.24541,-0.68126 4.14513,-1.75655 0.59253,-0.70816 0.35279,-1.98332 0.35279,-2.84427 v -6.879165 m -30.42708,-10.31875 v 21.695835 h 4.49791 v -5.29167 c 0,-0.63704 -0.14481,-1.53086 0.35279,-2.02846 0.65064,-0.65064 1.99486,-0.29247 2.82221,-0.37483 1.78053,-0.17724 3.56706,-0.85702 4.63756,-2.359209 2.47712,-3.476111 1.47064,-9.761984 -2.78548,-11.259486 -2.82095,-0.992543 -6.56458,-0.38218 -9.52499,-0.38218 m -66.675001,0.632068 c -4.154083,0.644276 -7.866598,1.844332 -10.215857,5.717932 -5.428787,8.951275 1.606491,21.034935 12.332523,19.520365 5.523524,-0.77994 10.257925,-5.08339 10.825865,-10.78912 0.6963,-6.995304 -3.584132,-13.521666 -10.825865,-14.309538 -0.743357,-0.08087 -1.362642,-0.256589 -2.116666,-0.139639 m 71.172911,9.686682 v -6.35 c 1.10588,0 2.74002,-0.302097 3.68213,0.396875 1.40435,1.041942 1.32837,4.26807 0,5.335753 -0.97892,0.786806 -2.51229,0.617372 -3.68213,0.617372 m -20.6375,25.039875 c -2.67591,1.10223 -2.45717,5.70836 0.26459,6.62192 1.34634,0.45191 3.34714,0.0882 4.7625,0.0882 h 10.84791 36.24792 11.90625 c 1.43584,0 3.52966,0.40282 4.74045,-0.49977 2.34043,-1.7447 1.857,-5.94801 -1.30087,-6.35735 -1.70904,-0.22155 -3.56834,-0.022 -5.29167,-0.022 h -10.31875 -32.27916 -13.49375 c -1.75786,0 -4.44929,-0.5049 -6.08542,0.16904 m 1.32292,16.86719 c -0.80251,0.13375 -1.69986,0.16333 -2.3151,0.757 -1.64378,1.58609 -1.09885,5.01619 0.99218,5.89432 1.60002,0.67194 3.59933,0.38953 5.29167,0.38953 h 10.58333 37.04167 c 4.12321,0 8.63395,0.50656 12.7,-0.16168 1.32622,-0.21798 2.63146,0.13197 3.68212,-0.91871 1.64673,-1.64674 1.12228,-4.89798 -1.03629,-5.87962 -1.02581,-0.46651 -2.59805,-0.18374 -3.70417,-0.18374 h -8.46666 -36.5125 -11.90625 c -2.06938,0 -4.30676,-0.23765 -6.35,0.1029 m -1.05833,16.96272 c -2.87074,0.95915 -2.90945,5.60757 0,6.51169 1.33506,0.41488 2.85302,0.23519 4.23333,0.23519 h 7.40833 24.60625 8.46667 c 1.1928,0 2.66124,0.25357 3.69682,-0.45567 2.17648,-1.4906 1.76237,-5.86659 -1.05099,-6.39411 -3.2848,-0.61588 -7.23661,-0.0294 -10.58333,-0.0294 h -22.225 -9.78958 c -1.45038,0 -3.37696,-0.33063 -4.7625,0.13229 m 0.79375,16.90394 c -3.06219,0.59541 -4.39071,5.25248 -1.05834,6.60722 2.63981,1.07321 6.46208,0.43363 9.26042,0.43363 h 19.57916 c 2.31966,0 4.58023,-0.0137 6.87917,-0.24252 0.99542,-0.0991 2.00784,0.10224 2.91042,-0.45569 2.8682,-1.77294 1.13749,-6.11899 -1.85209,-6.42348 -2.42036,-0.24653 -4.97511,-0.0221 -7.40833,-0.0221 h -14.2875 -9.26041 c -1.54613,0 -3.24054,-0.19304 -4.7625,0.1029 z"
       id="path24" /></g></svg>
